<svg width="24" height="25" viewBox="0 0 24 25" fill="none" xmlns="http://www.w3.org/2000/svg">
<path d="M8.50093 6.30031V18.3003C8.50093 18.4992 8.42191 18.69 8.28126 18.8306C8.14061 18.9713 7.94984 19.0503 7.75093 19.0503C7.55202 19.0503 7.36125 18.9713 7.2206 18.8306C7.07995 18.69 7.00093 18.4992 7.00093 18.3003V7.70156L5.16718 8.92531C5.00142 9.0357 4.79859 9.07573 4.60332 9.03658C4.40805 8.99743 4.23632 8.88232 4.12593 8.71656C4.01553 8.5508 3.97551 8.34797 4.01465 8.1527C4.0538 7.95743 4.16892 7.7857 4.33468 7.67531L7.33468 5.67531C7.4477 5.5999 7.57908 5.55661 7.71479 5.55007C7.8505 5.54352 7.98544 5.57396 8.10519 5.63814C8.22495 5.70231 8.32502 5.79782 8.39472 5.91444C8.46442 6.03107 8.50113 6.16444 8.50093 6.30031Z" fill="#78350F"/>
<path d="M19.7482 14.5002H18.4982V6.25017C18.4982 6.0938 18.4494 5.94133 18.3585 5.81408C18.2676 5.68683 18.1392 5.59118 17.9913 5.54049C17.8434 5.48981 17.6833 5.48663 17.5335 5.53139C17.3836 5.57616 17.2516 5.66664 17.1557 5.79017L10.1557 14.7902C10.0696 14.901 10.0163 15.0338 10.002 15.1735C9.98762 15.3131 10.0127 15.4539 10.0745 15.58C10.1362 15.7061 10.2321 15.8123 10.3512 15.8866C10.4703 15.9608 10.6078 16.0002 10.7482 16.0002H16.9982V18.2502C16.9982 18.4491 17.0772 18.6398 17.2178 18.7805C17.3585 18.9212 17.5493 19.0002 17.7482 19.0002C17.9471 19.0002 18.1379 18.9212 18.2785 18.7805C18.4192 18.6398 18.4982 18.4491 18.4982 18.2502V16.0002H19.7482C19.9471 16.0002 20.1379 15.9212 20.2785 15.7805C20.4192 15.6398 20.4982 15.4491 20.4982 15.2502C20.4982 15.0513 20.4192 14.8605 20.2785 14.7198C20.1379 14.5792 19.9471 14.5002 19.7482 14.5002ZM16.9982 14.5002H12.2819L16.9982 8.43642V11.4683V14.5002Z" fill="#78350F"/>
<path d="M21.75 0.537729H1.75C1.28587 0.537729 0.840752 0.722104 0.512563 1.05029C0.184375 1.37848 0 1.8236 0 2.28773V22.2877C0 22.7519 0.184375 23.197 0.512563 23.5252C0.840752 23.8534 1.28587 24.0377 1.75 24.0377H21.75C22.2141 24.0377 22.6592 23.8534 22.9874 23.5252C23.3156 23.197 23.5 22.7519 23.5 22.2877V2.28773C23.5 1.8236 23.3156 1.37848 22.9874 1.05029C22.6592 0.722104 22.2141 0.537729 21.75 0.537729ZM22 22.2877C22 22.354 21.9737 22.4176 21.9268 22.4645C21.8799 22.5114 21.8163 22.5377 21.75 22.5377H1.75C1.6837 22.5377 1.62011 22.5114 1.57322 22.4645C1.52634 22.4176 1.5 22.354 1.5 22.2877V2.28773C1.5 2.22143 1.52634 2.15784 1.57322 2.11095C1.62011 2.06407 1.6837 2.03773 1.75 2.03773H21.75C21.8163 2.03773 21.8799 2.06407 21.9268 2.11095C21.9737 2.15784 22 2.22143 22 2.28773V22.2877Z" fill="#78350F"/>
</svg>
