<svg width="24" height="24" viewBox="0 0 24 24" fill="none" xmlns="http://www.w3.org/2000/svg">
<path d="M11.75 5C10.06 5 8.66375 5.765 7.71375 7.21375C6.93125 8.405 6.5 10.0163 6.5 11.75C6.5 13.4837 6.93125 15.095 7.7125 16.2862C8.66375 17.735 10.0588 18.5 11.75 18.5C13.4412 18.5 14.8362 17.735 15.7862 16.2862C16.5687 15.095 17 13.4837 17 11.75C17 10.0163 16.5688 8.405 15.7875 7.21375C14.8363 5.765 13.44 5 11.75 5ZM11.75 17C9.16 17 8 14.3637 8 11.75C8 9.13625 9.16 6.5 11.75 6.5C14.34 6.5 15.5 9.13625 15.5 11.75C15.5 14.3637 14.34 17 11.75 17ZM21.75 0H1.75C1.28587 0 0.840752 0.184375 0.512563 0.512563C0.184375 0.840752 0 1.28587 0 1.75V21.75C0 22.2141 0.184375 22.6592 0.512563 22.9874C0.840752 23.3156 1.28587 23.5 1.75 23.5H21.75C22.2141 23.5 22.6592 23.3156 22.9874 22.9874C23.3156 22.6592 23.5 22.2141 23.5 21.75V1.75C23.5 1.28587 23.3156 0.840752 22.9874 0.512563C22.6592 0.184375 22.2141 0 21.75 0ZM22 21.75C22 21.8163 21.9737 21.8799 21.9268 21.9268C21.8799 21.9737 21.8163 22 21.75 22H1.75C1.6837 22 1.62011 21.9737 1.57322 21.9268C1.52634 21.8799 1.5 21.8163 1.5 21.75V1.75C1.5 1.6837 1.52634 1.62011 1.57322 1.57322C1.62011 1.52634 1.6837 1.5 1.75 1.5H21.75C21.8163 1.5 21.8799 1.52634 21.9268 1.57322C21.9737 1.62011 22 1.6837 22 1.75V21.75Z" fill="#78350F"/>
</svg>
