<svg width="24" height="24" viewBox="0 0 24 24" fill="none" xmlns="http://www.w3.org/2000/svg">
<path d="M21.75 0H1.75C1.28587 0 0.840752 0.184375 0.512563 0.512563C0.184375 0.840752 0 1.28587 0 1.75V21.75C0 22.2141 0.184375 22.6592 0.512563 22.9874C0.840752 23.3156 1.28587 23.5 1.75 23.5H21.75C22.2141 23.5 22.6592 23.3156 22.9874 22.9874C23.3156 22.6592 23.5 22.2141 23.5 21.75V1.75C23.5 1.28587 23.3156 0.840752 22.9874 0.512563C22.6592 0.184375 22.2141 0 21.75 0ZM22 21.75C22 21.8163 21.9737 21.8799 21.9268 21.9268C21.8799 21.9737 21.8163 22 21.75 22H1.75C1.6837 22 1.62011 21.9737 1.57322 21.9268C1.52634 21.8799 1.5 21.8163 1.5 21.75V1.75C1.5 1.6837 1.52634 1.62011 1.57322 1.57322C1.62011 1.52634 1.6837 1.5 1.75 1.5H21.75C21.8163 1.5 21.8799 1.52634 21.9268 1.57322C21.9737 1.62011 22 1.6837 22 1.75V21.75ZM10.385 6.5L9.76 10.25C10.239 10.0833 10.7428 9.99877 11.25 10C12.3772 10 13.4582 10.4478 14.2552 11.2448C15.0522 12.0418 15.5 13.1228 15.5 14.25C15.5 15.3772 15.0522 16.4582 14.2552 17.2552C13.4582 18.0522 12.3772 18.5 11.25 18.5C10.6877 18.5095 10.1292 18.406 9.60759 18.1955C9.08603 17.9851 8.61204 17.6721 8.21375 17.275C8.07451 17.1328 7.99747 16.9411 7.99958 16.742C8.00169 16.543 8.08278 16.353 8.225 16.2138C8.36722 16.0745 8.55893 15.9975 8.75795 15.9996C8.95698 16.0017 9.14701 16.0828 9.28625 16.225C9.54495 16.4792 9.85209 16.6788 10.1894 16.8119C10.5268 16.945 10.8874 17.009 11.25 17C11.9793 17 12.6788 16.7103 13.1945 16.1945C13.7103 15.6788 14 14.9793 14 14.25C14 13.5207 13.7103 12.8212 13.1945 12.3055C12.6788 11.7897 11.9793 11.5 11.25 11.5C10.8874 11.491 10.5268 11.555 10.1894 11.6881C9.85209 11.8212 9.54495 12.0208 9.28625 12.275C9.17456 12.3895 9.02918 12.4654 8.87133 12.4914C8.71349 12.5174 8.55145 12.4923 8.4089 12.4197C8.26634 12.3471 8.15074 12.2308 8.07897 12.0879C8.0072 11.9449 7.98304 11.7827 8.01 11.625L9.01 5.625C9.03955 5.45016 9.1301 5.29144 9.26557 5.17702C9.40105 5.0626 9.57268 4.99988 9.75 5H14.75C14.9489 5 15.1397 5.07902 15.2803 5.21967C15.421 5.36032 15.5 5.55109 15.5 5.75C15.5 5.94891 15.421 6.13968 15.2803 6.28033C15.1397 6.42098 14.9489 6.5 14.75 6.5H10.385Z" fill="#78350F"/>
</svg>
