<svg width="24" height="24" viewBox="0 0 24 24" fill="none" xmlns="http://www.w3.org/2000/svg">
<path d="M21.75 0H1.75C1.28587 0 0.840752 0.184375 0.512563 0.512563C0.184375 0.840752 0 1.28587 0 1.75V21.75C0 22.2141 0.184375 22.6592 0.512563 22.9874C0.840752 23.3156 1.28587 23.5 1.75 23.5H21.75C22.2141 23.5 22.6592 23.3156 22.9874 22.9874C23.3156 22.6592 23.5 22.2141 23.5 21.75V1.75C23.5 1.28587 23.3156 0.840752 22.9874 0.512563C22.6592 0.184375 22.2141 0 21.75 0ZM22 21.75C22 21.8163 21.9737 21.8799 21.9268 21.9268C21.8799 21.9737 21.8163 22 21.75 22H1.75C1.6837 22 1.62011 21.9737 1.57322 21.9268C1.52634 21.8799 1.5 21.8163 1.5 21.75V1.75C1.5 1.6837 1.52634 1.62011 1.57322 1.57322C1.62011 1.52634 1.6837 1.5 1.75 1.5H21.75C21.8163 1.5 21.8799 1.52634 21.9268 1.57322C21.9737 1.62011 22 1.6837 22 1.75V21.75ZM15.75 14H14.5V5.75C14.5 5.59363 14.4512 5.44116 14.3603 5.31391C14.2694 5.18667 14.141 5.09101 13.9931 5.04032C13.8452 4.98964 13.6851 4.98646 13.5353 5.03122C13.3855 5.07599 13.2534 5.16647 13.1575 5.29L6.1575 14.29C6.07141 14.4009 6.01816 14.5337 6.0038 14.6733C5.98944 14.8129 6.01456 14.9538 6.07629 15.0798C6.13802 15.2059 6.23388 15.3121 6.35298 15.3864C6.47208 15.4607 6.60964 15.5 6.75 15.5H13V17.75C13 17.9489 13.079 18.1397 13.2197 18.2803C13.3603 18.421 13.5511 18.5 13.75 18.5C13.9489 18.5 14.1397 18.421 14.2803 18.2803C14.421 18.1397 14.5 17.9489 14.5 17.75V15.5H15.75C15.9489 15.5 16.1397 15.421 16.2803 15.2803C16.421 15.1397 16.5 14.9489 16.5 14.75C16.5 14.5511 16.421 14.3603 16.2803 14.2197C16.1397 14.079 15.9489 14 15.75 14ZM13 14H8.28375L13 7.93625V14Z" fill="#78350F"/>
</svg>
