<svg width="24" height="25" viewBox="0 0 24 25" fill="none" xmlns="http://www.w3.org/2000/svg">
<path d="M8.50093 6.32545V18.3255C8.50093 18.5244 8.42191 18.7151 8.28126 18.8558C8.14061 18.9964 7.94984 19.0755 7.75093 19.0755C7.55202 19.0755 7.36125 18.9964 7.2206 18.8558C7.07995 18.7151 7.00093 18.5244 7.00093 18.3255V7.7267L5.16718 8.95045C5.00142 9.06085 4.79859 9.10088 4.60332 9.06173C4.40805 9.02258 4.23632 8.90746 4.12593 8.7417C4.01553 8.57594 3.97551 8.37312 4.01465 8.17784C4.0538 7.98257 4.16892 7.81085 4.33468 7.70045L7.33468 5.70045C7.4477 5.62505 7.57908 5.58176 7.71479 5.57521C7.8505 5.56867 7.98544 5.59911 8.10519 5.66328C8.22495 5.72746 8.32502 5.82296 8.39472 5.93959C8.46442 6.05622 8.50113 6.18959 8.50093 6.32545Z" fill="#78350F"/>
<path d="M15.4052 10.5372C15.1706 10.5377 14.9365 10.5574 14.7052 10.596L17.0489 6.6722C17.0995 6.58766 17.1329 6.494 17.1473 6.39655C17.1616 6.29909 17.1567 6.19977 17.1326 6.10424C17.1086 6.00871 17.066 5.91885 17.0072 5.83979C16.9485 5.76073 16.8747 5.69401 16.7902 5.64345C16.7057 5.59289 16.612 5.55948 16.5145 5.54512C16.4171 5.53076 16.3178 5.53574 16.2222 5.55977C16.1267 5.5838 16.0368 5.6264 15.9578 5.68516C15.8787 5.74391 15.812 5.81766 15.7614 5.9022L11.7314 12.6522C11.2612 13.4616 11.0713 14.4037 11.1913 15.332C11.3113 16.2604 11.7345 17.1232 12.3951 17.7865C13.0557 18.4497 13.9169 18.8763 14.8448 18.9999C15.7727 19.1236 16.7154 18.9375 17.5267 18.4704C18.338 18.0034 18.9724 17.2815 19.3313 16.417C19.6903 15.5524 19.7538 14.5936 19.512 13.6892C19.2701 12.7849 18.7365 11.9857 17.9939 11.4158C17.2513 10.8458 16.3413 10.537 15.4052 10.5372ZM15.4052 17.5372C14.8613 17.5372 14.3296 17.3759 13.8774 17.0737C13.4251 16.7716 13.0727 16.3421 12.8645 15.8396C12.6564 15.3371 12.6019 14.7841 12.708 14.2507C12.8141 13.7173 13.0761 13.2273 13.4606 12.8427C13.8452 12.4581 14.3352 12.1962 14.8687 12.09C15.4021 11.9839 15.9551 12.0384 16.4576 12.2465C16.9601 12.4547 17.3896 12.8071 17.6917 13.2594C17.9939 13.7116 18.1552 14.2433 18.1552 14.7872C18.1552 15.5165 17.8655 16.216 17.3497 16.7317C16.834 17.2475 16.1345 17.5372 15.4052 17.5372Z" fill="#78350F"/>
<path d="M21.75 0.562876H1.75C1.28587 0.562876 0.840752 0.74725 0.512563 1.07544C0.184375 1.40363 0 1.84875 0 2.31288V22.3129C0 22.777 0.184375 23.2221 0.512563 23.5503C0.840752 23.8785 1.28587 24.0629 1.75 24.0629H21.75C22.2141 24.0629 22.6592 23.8785 22.9874 23.5503C23.3156 23.2221 23.5 22.777 23.5 22.3129V2.31288C23.5 1.84875 23.3156 1.40363 22.9874 1.07544C22.6592 0.74725 22.2141 0.562876 21.75 0.562876ZM22 22.3129C22 22.3792 21.9737 22.4428 21.9268 22.4897C21.8799 22.5365 21.8163 22.5629 21.75 22.5629H1.75C1.6837 22.5629 1.62011 22.5365 1.57322 22.4897C1.52634 22.4428 1.5 22.3792 1.5 22.3129V2.31288C1.5 2.24657 1.52634 2.18298 1.57322 2.1361C1.62011 2.08921 1.6837 2.06288 1.75 2.06288H21.75C21.8163 2.06288 21.8799 2.08921 21.9268 2.1361C21.9737 2.18298 22 2.24657 22 2.31288V22.3129Z" fill="#78350F"/>
</svg>
