<svg width="25" height="25" viewBox="0 0 25 25" fill="none" xmlns="http://www.w3.org/2000/svg">
<path d="M8.50093 5.83803V17.838C8.50093 18.0369 8.42191 18.2277 8.28126 18.3684C8.14061 18.509 7.94984 18.588 7.75093 18.588C7.55202 18.588 7.36125 18.509 7.2206 18.3684C7.07995 18.2277 7.00093 18.0369 7.00093 17.838V7.23928L5.16718 8.46303C5.00142 8.57342 4.79859 8.61345 4.60332 8.5743C4.40805 8.53515 4.23632 8.42004 4.12593 8.25428C4.01553 8.08852 3.97551 7.88569 4.01465 7.69042C4.0538 7.49515 4.16892 7.32342 4.33468 7.21303L7.33468 5.21303C7.4477 5.13762 7.57908 5.09433 7.71479 5.08779C7.8505 5.08124 7.98544 5.11168 8.10519 5.17586C8.22495 5.24003 8.32502 5.33554 8.39472 5.45216C8.46442 5.56879 8.50113 5.70216 8.50093 5.83803Z" fill="#78350F"/>
<path d="M22.6755 0H1.82447C1.34059 0 0.876529 0.19222 0.534374 0.534374C0.19222 0.876529 0 1.34059 0 1.82447V22.6755C0 23.1594 0.19222 23.6235 0.534374 23.9656C0.876529 24.3078 1.34059 24.5 1.82447 24.5H22.6755C23.1594 24.5 23.6235 24.3078 23.9656 23.9656C24.3078 23.6235 24.5 23.1594 24.5 22.6755V1.82447C24.5 1.34059 24.3078 0.876529 23.9656 0.534374C23.6235 0.19222 23.1594 0 22.6755 0ZM22.9362 22.6755C22.9362 22.7447 22.9087 22.811 22.8598 22.8598C22.811 22.9087 22.7447 22.9362 22.6755 22.9362H1.82447C1.75534 22.9362 1.68905 22.9087 1.64017 22.8598C1.59129 22.811 1.56383 22.7447 1.56383 22.6755V1.82447C1.56383 1.75534 1.59129 1.68905 1.64017 1.64017C1.68905 1.59129 1.75534 1.56383 1.82447 1.56383H22.6755C22.7447 1.56383 22.811 1.59129 22.8598 1.64017C22.9087 1.68905 22.9362 1.75534 22.9362 1.82447V22.6755Z" fill="#78350F"/>
<path d="M19.8122 5.67971C19.7956 5.55517 19.7493 5.43646 19.6771 5.33362C19.6051 5.2307 19.5093 5.14665 19.398 5.08858C19.2866 5.03051 19.1628 5.00012 19.0372 5H12.7819C12.5745 5 12.3757 5.08238 12.229 5.22902C12.0824 5.37566 12 5.57454 12 5.78191C12 5.98929 12.0824 6.18817 12.229 6.33481C12.3757 6.48145 12.5745 6.56383 12.7819 6.56383H17.9204L13.9737 17.402C13.9386 17.4985 13.9228 17.601 13.9274 17.7036C13.9319 17.8062 13.9566 17.9069 14 18C14.0434 18.0931 14.1048 18.1767 14.1806 18.246C14.2563 18.3153 14.345 18.3691 14.4415 18.4042C14.5252 18.434 14.6133 18.4499 14.7022 18.4511C14.8627 18.4511 15.0194 18.4017 15.1509 18.3096C15.2824 18.2175 15.3823 18.0872 15.4372 17.9363L19.7722 6.04907C19.815 5.93094 19.8287 5.80425 19.8122 5.67971Z" fill="#78350F"/>
</svg>
