<svg width="24" height="24" viewBox="0 0 24 24" fill="none" xmlns="http://www.w3.org/2000/svg">
<path d="M8.50093 6.25001V18.25C8.50093 18.4489 8.42191 18.6397 8.28126 18.7803C8.14061 18.921 7.94984 19 7.75093 19C7.55202 19 7.36125 18.921 7.2206 18.7803C7.07995 18.6397 7.00093 18.4489 7.00093 18.25V7.65126L5.16718 8.87501C5.00142 8.98541 4.79859 9.02544 4.60332 8.98629C4.40805 8.94714 4.23632 8.83202 4.12593 8.66626C4.01553 8.5005 3.97551 8.29768 4.01465 8.10241C4.0538 7.90713 4.16892 7.73541 4.33468 7.62501L7.33468 5.62501C7.4477 5.54961 7.57908 5.50632 7.71479 5.49977C7.8505 5.49323 7.98544 5.52367 8.10519 5.58784C8.22495 5.65202 8.32502 5.74752 8.39472 5.86415C8.46442 5.98078 8.50113 6.11415 8.50093 6.25001Z" fill="#78350F"/>
<path d="M14.75 5.48744C13.06 5.48744 11.6637 6.25244 10.7137 7.70119C9.93125 8.89244 9.5 10.5037 9.5 12.2374C9.5 13.9712 9.93125 15.5824 10.7125 16.7737C11.6637 18.2224 13.0588 18.9874 14.75 18.9874C16.4412 18.9874 17.8362 18.2224 18.7862 16.7737C19.5687 15.5824 20 13.9712 20 12.2374C20 10.5037 19.5688 8.89244 18.7875 7.70119C17.8363 6.25244 16.44 5.48744 14.75 5.48744ZM14.75 17.4874C12.16 17.4874 11 14.8512 11 12.2374C11 9.62369 12.16 6.98744 14.75 6.98744C17.34 6.98744 18.5 9.62369 18.5 12.2374C18.5 14.8512 17.34 17.4874 14.75 17.4874ZM21.75 0.487436H1.75C1.28587 0.487436 0.840752 0.671811 0.512563 1C0.184375 1.32819 0 1.77331 0 2.23744V22.2374C0 22.7016 0.184375 23.1467 0.512563 23.4749C0.840752 23.8031 1.28587 23.9874 1.75 23.9874H21.75C22.2141 23.9874 22.6592 23.8031 22.9874 23.4749C23.3156 23.1467 23.5 22.7016 23.5 22.2374V2.23744C23.5 1.77331 23.3156 1.32819 22.9874 1C22.6592 0.671811 22.2141 0.487436 21.75 0.487436ZM22 22.2374C22 22.3037 21.9737 22.3673 21.9268 22.4142C21.8799 22.4611 21.8163 22.4874 21.75 22.4874H1.75C1.6837 22.4874 1.62011 22.4611 1.57322 22.4142C1.52634 22.3673 1.5 22.3037 1.5 22.2374V2.23744C1.5 2.17113 1.52634 2.10754 1.57322 2.06066C1.62011 2.01378 1.6837 1.98744 1.75 1.98744H21.75C21.8163 1.98744 21.8799 2.01378 21.9268 2.06066C21.9737 2.10754 22 2.17113 22 2.23744V22.2374Z" fill="#78350F"/>
</svg>
