<svg width="24" height="25" viewBox="0 0 24 25" fill="none" xmlns="http://www.w3.org/2000/svg">
<path d="M8.50093 6.27516V18.2752C8.50093 18.4741 8.42191 18.6648 8.28126 18.8055C8.14061 18.9461 7.94984 19.0252 7.75093 19.0252C7.55202 19.0252 7.36125 18.9461 7.2206 18.8055C7.07995 18.6648 7.00093 18.4741 7.00093 18.2752V7.67641L5.16718 8.90016C5.00142 9.01056 4.79859 9.05058 4.60332 9.01144C4.40805 8.97229 4.23632 8.85717 4.12593 8.69141C4.01553 8.52565 3.97551 8.32282 4.01465 8.12755C4.0538 7.93228 4.16892 7.76056 4.33468 7.65016L7.33468 5.65016C7.4477 5.57475 7.57908 5.53147 7.71479 5.52492C7.8505 5.51837 7.98544 5.54881 8.10519 5.61299C8.22495 5.67717 8.32502 5.77267 8.39472 5.8893C8.46442 6.00592 8.50113 6.13929 8.50093 6.27516Z" fill="#78350F"/>
<path d="M21.75 0.512583H1.75C1.28587 0.512583 0.840752 0.696957 0.512563 1.02515C0.184375 1.35333 0 1.79845 0 2.26258V22.2626C0 22.7267 0.184375 23.1718 0.512563 23.5C0.840752 23.8282 1.28587 24.0126 1.75 24.0126H21.75C22.2141 24.0126 22.6592 23.8282 22.9874 23.5C23.3156 23.1718 23.5 22.7267 23.5 22.2626V2.26258C23.5 1.79845 23.3156 1.35333 22.9874 1.02515C22.6592 0.696957 22.2141 0.512583 21.75 0.512583ZM22 22.2626C22 22.3289 21.9737 22.3925 21.9268 22.4394C21.8799 22.4862 21.8163 22.5126 21.75 22.5126H1.75C1.6837 22.5126 1.62011 22.4862 1.57322 22.4394C1.52634 22.3925 1.5 22.3289 1.5 22.2626V2.26258C1.5 2.19628 1.52634 2.13269 1.57322 2.08581C1.62011 2.03892 1.6837 2.01258 1.75 2.01258H21.75C21.8163 2.01258 21.8799 2.03892 21.9268 2.08581C21.9737 2.13269 22 2.19628 22 2.26258V22.2626Z" fill="#78350F"/>
<path d="M19.2803 18.7577C19.421 18.617 19.5 18.4263 19.5 18.2273C19.5 18.0284 19.421 17.8377 19.2803 17.697C19.1397 17.5564 18.9489 17.4773 18.75 17.4773H14.25L18.75 11.4848C19.071 11.0523 19.295 10.5558 19.4069 10.0289C19.5188 9.50206 19.5158 8.95729 19.3983 8.43167C19.2808 7.90605 19.0514 7.41192 18.7258 6.98289C18.4002 6.55387 17.986 6.20002 17.5113 5.94542C17.0367 5.69082 16.5128 5.54145 15.9753 5.50747C15.4377 5.47349 14.8992 5.5557 14.3963 5.7485C13.8934 5.94131 13.4379 6.24018 13.0609 6.62479C12.6838 7.00939 12.394 7.47071 12.2113 7.97734C12.1756 8.0708 12.1591 8.17044 12.1625 8.2704C12.166 8.37035 12.1894 8.4686 12.2314 8.55937C12.2734 8.65014 12.3332 8.73159 12.4071 8.79893C12.4811 8.86627 12.5677 8.91814 12.662 8.95149C12.7563 8.98484 12.8563 8.99899 12.9562 8.99311C13.056 8.98724 13.1537 8.96145 13.2434 8.91727C13.3331 8.87309 13.4131 8.81141 13.4786 8.73586C13.5442 8.66031 13.5939 8.57241 13.625 8.47734C13.7342 8.17273 13.9078 7.89526 14.1341 7.66386C14.3603 7.43246 14.6337 7.25258 14.9358 7.13649C15.2378 7.02039 15.5614 6.97082 15.8843 6.99115C16.2073 7.01148 16.5221 7.10123 16.8072 7.25429C17.0923 7.40734 17.341 7.62009 17.5365 7.87803C17.7319 8.13597 17.8693 8.43303 17.9395 8.74893C18.0096 9.06483 18.0108 9.39215 17.943 9.70855C17.8751 10.025 17.7398 10.323 17.5462 10.5823L12.15 17.7773C12.0664 17.8888 12.0155 18.0213 12.003 18.16C11.9905 18.2987 12.0169 18.4382 12.0792 18.5628C12.1415 18.6873 12.2372 18.7921 12.3557 18.8653C12.4742 18.9386 12.6107 18.9773 12.75 18.9773H18.75C18.9489 18.9773 19.1397 18.8983 19.2803 18.7577Z" fill="#78350F"/>
</svg>
