<svg width="24" height="24" viewBox="0 0 24 24" fill="none" xmlns="http://www.w3.org/2000/svg">
<path d="M21.75 0H1.75C1.28587 0 0.840752 0.184375 0.512563 0.512563C0.184375 0.840752 0 1.28587 0 1.75V21.75C0 22.2141 0.184375 22.6592 0.512563 22.9874C0.840752 23.3156 1.28587 23.5 1.75 23.5H21.75C22.2141 23.5 22.6592 23.3156 22.9874 22.9874C23.3156 22.6592 23.5 22.2141 23.5 21.75V1.75C23.5 1.28587 23.3156 0.840752 22.9874 0.512563C22.6592 0.184375 22.2141 0 21.75 0ZM22 21.75C22 21.8163 21.9737 21.8799 21.9268 21.9268C21.8799 21.9737 21.8163 22 21.75 22H1.75C1.6837 22 1.62011 21.9737 1.57322 21.9268C1.52634 21.8799 1.5 21.8163 1.5 21.75V1.75C1.5 1.6837 1.52634 1.62011 1.57322 1.57322C1.62011 1.52634 1.6837 1.5 1.75 1.5H21.75C21.8163 1.5 21.8799 1.52634 21.9268 1.57322C21.9737 1.62011 22 1.6837 22 1.75V21.75ZM15.5 17.75C15.5 17.9489 15.421 18.1397 15.2803 18.2803C15.1397 18.421 14.9489 18.5 14.75 18.5H8.75C8.61072 18.5 8.47418 18.4612 8.3557 18.388C8.23722 18.3148 8.14147 18.21 8.07918 18.0854C8.01689 17.9608 7.99052 17.8214 8.00303 17.6826C8.01554 17.5439 8.06643 17.4114 8.15 17.3L13.5462 10.105C13.7398 9.84565 13.8751 9.54761 13.943 9.23121C14.0108 8.91481 14.0096 8.58749 13.9395 8.27158C13.8693 7.95568 13.7319 7.65863 13.5365 7.40069C13.341 7.14275 13.0923 6.93 12.8072 6.77694C12.5221 6.62389 12.2073 6.53413 11.8843 6.51381C11.5614 6.49348 11.2378 6.54305 10.9358 6.65914C10.6337 6.77524 10.3603 6.95512 10.1341 7.18652C9.90785 7.41792 9.73421 7.69539 9.625 8C9.59394 8.09507 9.54417 8.18297 9.47864 8.25852C9.4131 8.33407 9.33312 8.39575 9.24339 8.43993C9.15366 8.48411 9.056 8.50989 8.95616 8.51577C8.85632 8.52165 8.75631 8.5075 8.66202 8.47415C8.56772 8.4408 8.48105 8.38893 8.40711 8.32159C8.33316 8.25425 8.27343 8.1728 8.23143 8.08203C8.18943 7.99126 8.166 7.89301 8.16254 7.79305C8.15907 7.6931 8.17564 7.59346 8.21125 7.5C8.39404 6.99337 8.68381 6.53205 9.06087 6.14744C9.43792 5.76284 9.89339 5.46396 10.3963 5.27116C10.8992 5.07836 11.4377 4.99615 11.9753 5.03013C12.5128 5.06411 13.0367 5.21348 13.5113 5.46808C13.986 5.72267 14.4002 6.07652 14.7258 6.50555C15.0514 6.93458 15.2808 7.42871 15.3983 7.95433C15.5158 8.47995 15.5188 9.02472 15.4069 9.55157C15.295 10.0784 15.071 10.575 14.75 11.0075L10.25 17H14.75C14.9489 17 15.1397 17.079 15.2803 17.2197C15.421 17.3603 15.5 17.5511 15.5 17.75Z" fill="#78350F"/>
</svg>
