<svg width="24" height="24" viewBox="0 0 24 24" fill="none" xmlns="http://www.w3.org/2000/svg">
<path d="M21.75 0H1.75C1.28587 0 0.840752 0.184375 0.512563 0.512563C0.184375 0.840752 0 1.28587 0 1.75V21.75C0 22.2141 0.184375 22.6592 0.512563 22.9874C0.840752 23.3156 1.28587 23.5 1.75 23.5H21.75C22.2141 23.5 22.6592 23.3156 22.9874 22.9874C23.3156 22.6592 23.5 22.2141 23.5 21.75V1.75C23.5 1.28587 23.3156 0.840752 22.9874 0.512563C22.6592 0.184375 22.2141 0 21.75 0ZM22 21.75C22 21.8163 21.9737 21.8799 21.9268 21.9268C21.8799 21.9737 21.8163 22 21.75 22H1.75C1.6837 22 1.62011 21.9737 1.57322 21.9268C1.52634 21.8799 1.5 21.8163 1.5 21.75V1.75C1.5 1.6837 1.52634 1.62011 1.57322 1.57322C1.62011 1.52634 1.6837 1.5 1.75 1.5H21.75C21.8163 1.5 21.8799 1.52634 21.9268 1.57322C21.9737 1.62011 22 1.6837 22 1.75V21.75ZM13.875 5.56875C13.3107 5.24318 12.6791 5.0517 12.029 5.0091C11.3789 4.96651 10.7278 5.07393 10.1258 5.32307C9.52386 5.57221 8.98723 5.95641 8.55741 6.44597C8.12758 6.93553 7.81605 7.51736 7.64689 8.14649C7.47774 8.77562 7.45548 9.43523 7.58184 10.0743C7.7082 10.7134 7.97979 11.3149 8.37564 11.8324C8.77149 12.3498 9.28099 12.7693 9.86478 13.0584C10.4486 13.3476 11.091 13.4987 11.7425 13.5C11.9801 13.4997 12.2172 13.4792 12.4513 13.4387L10.1062 17.3662C10.0041 17.537 9.97404 17.7413 10.0226 17.9342C10.0711 18.1271 10.1943 18.2929 10.365 18.395C10.5357 18.4971 10.74 18.5272 10.933 18.4787C11.1259 18.4302 11.2916 18.307 11.3938 18.1362L15.4312 11.375C15.7104 10.8916 15.8915 10.3579 15.9644 9.80449C16.0373 9.25105 16.0004 8.68869 15.8559 8.14951C15.7113 7.61033 15.462 7.1049 15.1221 6.66209C14.7823 6.21927 14.3585 5.84776 13.875 5.56875ZM14.1325 10.625C13.8614 11.097 13.4564 11.4779 12.9687 11.7195C12.481 11.9611 11.9326 12.0526 11.3929 11.9823C10.8532 11.9121 10.3464 11.6832 9.93685 11.3248C9.52727 10.9664 9.23326 10.4945 9.09204 9.96886C8.95082 9.44324 8.96875 8.88753 9.14356 8.3721C9.31836 7.85667 9.64218 7.4047 10.074 7.07342C10.5058 6.74214 11.0263 6.54645 11.5694 6.51113C12.1125 6.47581 12.6539 6.60244 13.125 6.875C13.7548 7.2397 14.2143 7.83918 14.403 8.54209C14.5916 9.24499 14.4939 9.994 14.1313 10.625H14.1325Z" fill="#78350F"/>
</svg>
