<svg width="24" height="24" viewBox="0 0 24 24" fill="none" xmlns="http://www.w3.org/2000/svg">
<path d="M21.75 0H1.75C1.28587 0 0.840752 0.184375 0.512563 0.512563C0.184375 0.840752 0 1.28587 0 1.75V21.75C0 22.2141 0.184375 22.6592 0.512563 22.9874C0.840752 23.3156 1.28587 23.5 1.75 23.5H21.75C22.2141 23.5 22.6592 23.3156 22.9874 22.9874C23.3156 22.6592 23.5 22.2141 23.5 21.75V1.75C23.5 1.28587 23.3156 0.840752 22.9874 0.512563C22.6592 0.184375 22.2141 0 21.75 0ZM22 21.75C22 21.8163 21.9737 21.8799 21.9268 21.9268C21.8799 21.9737 21.8163 22 21.75 22H1.75C1.6837 22 1.62011 21.9737 1.57322 21.9268C1.52634 21.8799 1.5 21.8163 1.5 21.75V1.75C1.5 1.6837 1.52634 1.62011 1.57322 1.57322C1.62011 1.52634 1.6837 1.5 1.75 1.5H21.75C21.8163 1.5 21.8799 1.52634 21.9268 1.57322C21.9737 1.62011 22 1.6837 22 1.75V21.75ZM14.0713 11.1925C14.6834 10.7101 15.13 10.0489 15.3489 9.30089C15.5679 8.5529 15.5484 7.75527 15.2931 7.01888C15.0378 6.2825 14.5594 5.64396 13.9244 5.19204C13.2894 4.74012 12.5294 4.49728 11.75 4.49728C10.9706 4.49728 10.2106 4.74012 9.5756 5.19204C8.94061 5.64396 8.46221 6.2825 8.2069 7.01888C7.9516 7.75527 7.93208 8.5529 8.15105 9.30089C8.37003 10.0489 8.81663 10.7101 9.42875 11.1925C8.66156 11.6927 8.07648 12.4274 7.76067 13.2871C7.44485 14.1468 7.4152 15.0855 7.67612 15.9634C7.93705 16.8413 8.47459 17.6114 9.20868 18.1591C9.94277 18.7067 10.8341 19.0026 11.75 19.0026C12.6659 19.0026 13.5572 18.7067 14.2913 18.1591C15.0254 17.6114 15.563 16.8413 15.8239 15.9634C16.0848 15.0855 16.0551 14.1468 15.7393 13.2871C15.4235 12.4274 14.8384 11.6927 14.0713 11.1925ZM9.5 8.25C9.5 7.80499 9.63196 7.36998 9.87919 6.99997C10.1264 6.62996 10.4778 6.34157 10.889 6.17127C11.3001 6.00097 11.7525 5.95642 12.189 6.04323C12.6254 6.13005 13.0263 6.34434 13.341 6.65901C13.6557 6.97368 13.8699 7.37459 13.9568 7.81105C14.0436 8.2475 13.999 8.6999 13.8287 9.11104C13.6584 9.52217 13.37 9.87357 13 10.1208C12.63 10.368 12.195 10.5 11.75 10.5C11.1533 10.5 10.581 10.2629 10.159 9.84099C9.73705 9.41903 9.5 8.84674 9.5 8.25ZM11.75 17.5C11.2061 17.5 10.6744 17.3387 10.2222 17.0365C9.76995 16.7344 9.41747 16.3049 9.20933 15.8024C9.00119 15.2999 8.94673 14.7469 9.05284 14.2135C9.15895 13.6801 9.42086 13.1901 9.80546 12.8055C10.1901 12.4209 10.6801 12.159 11.2135 12.0528C11.7469 11.9467 12.2999 12.0012 12.8024 12.2093C13.3049 12.4175 13.7344 12.7699 14.0365 13.2222C14.3387 13.6744 14.5 14.2061 14.5 14.75C14.5 15.4793 14.2103 16.1788 13.6945 16.6945C13.1788 17.2103 12.4793 17.5 11.75 17.5Z" fill="#78350F"/>
</svg>
