<svg width="24" height="24" viewBox="0 0 24 24" fill="none" xmlns="http://www.w3.org/2000/svg">
<path d="M8.50093 5.76259V17.7626C8.50093 17.9615 8.42191 18.1523 8.28126 18.2929C8.14061 18.4336 7.94984 18.5126 7.75093 18.5126C7.55202 18.5126 7.36125 18.4336 7.2206 18.2929C7.07995 18.1523 7.00093 17.9615 7.00093 17.7626V7.16384L5.16718 8.38759C5.00142 8.49798 4.79859 8.53801 4.60332 8.49886C4.40805 8.45971 4.23632 8.3446 4.12593 8.17884C4.01553 8.01308 3.97551 7.81025 4.01465 7.61498C4.0538 7.41971 4.16892 7.24798 4.33468 7.13759L7.33468 5.13759C7.4477 5.06218 7.57908 5.01889 7.71479 5.01235C7.8505 5.0058 7.98544 5.03624 8.10519 5.10042C8.22495 5.16459 8.32502 5.2601 8.39472 5.37672C8.46442 5.49335 8.50113 5.62672 8.50093 5.76259Z" fill="#78350F"/>
<path d="M17.5009 5.76259V17.7626C17.5009 17.9615 17.4219 18.1523 17.2813 18.2929C17.1406 18.4336 16.9498 18.5126 16.7509 18.5126C16.552 18.5126 16.3613 18.4336 16.2206 18.2929C16.0799 18.1523 16.0009 17.9615 16.0009 17.7626V7.16384L14.1672 8.38759C14.0014 8.49798 13.7986 8.53801 13.6033 8.49886C13.408 8.45971 13.2363 8.3446 13.1259 8.17884C13.0155 8.01308 12.9755 7.81025 13.0147 7.61498C13.0538 7.41971 13.1689 7.24798 13.3347 7.13759L16.3347 5.13759C16.4477 5.06218 16.5791 5.01889 16.7148 5.01235C16.8505 5.0058 16.9854 5.03624 17.1052 5.10042C17.2249 5.16459 17.325 5.2601 17.3947 5.37672C17.4644 5.49335 17.5011 5.62672 17.5009 5.76259Z" fill="#78350F"/>
<path d="M21.75 9.53674e-06H1.75C1.28587 9.53674e-06 0.840752 0.184384 0.512563 0.512573C0.184375 0.840761 0 1.28588 0 1.75001V21.75C0 22.2141 0.184375 22.6593 0.512563 22.9874C0.840752 23.3156 1.28587 23.5 1.75 23.5H21.75C22.2141 23.5 22.6592 23.3156 22.9874 22.9874C23.3156 22.6593 23.5 22.2141 23.5 21.75V1.75001C23.5 1.28588 23.3156 0.840761 22.9874 0.512573C22.6592 0.184384 22.2141 9.53674e-06 21.75 9.53674e-06ZM22 21.75C22 21.8163 21.9737 21.8799 21.9268 21.9268C21.8799 21.9737 21.8163 22 21.75 22H1.75C1.6837 22 1.62011 21.9737 1.57322 21.9268C1.52634 21.8799 1.5 21.8163 1.5 21.75V1.75001C1.5 1.68371 1.52634 1.62012 1.57322 1.57323C1.62011 1.52635 1.6837 1.50001 1.75 1.50001H21.75C21.8163 1.50001 21.8799 1.52635 21.9268 1.57323C21.9737 1.62012 22 1.68371 22 1.75001V21.75Z" fill="#78350F"/>
</svg>
