<svg width="24" height="24" viewBox="0 0 24 24" fill="none" xmlns="http://www.w3.org/2000/svg">
<path d="M8.50093 5.81288V17.8129C8.50093 18.0118 8.42191 18.2026 8.28126 18.3432C8.14061 18.4839 7.94984 18.5629 7.75093 18.5629C7.55202 18.5629 7.36125 18.4839 7.2206 18.3432C7.07995 18.2026 7.00093 18.0118 7.00093 17.8129V7.21413L5.16718 8.43788C5.00142 8.54828 4.79859 8.5883 4.60332 8.54915C4.40805 8.51001 4.23632 8.39489 4.12593 8.22913C4.01553 8.06337 3.97551 7.86054 4.01465 7.66527C4.0538 7.47 4.16892 7.29828 4.33468 7.18788L7.33468 5.18788C7.4477 5.11247 7.57908 5.06919 7.71479 5.06264C7.8505 5.05609 7.98544 5.08653 8.10519 5.15071C8.22495 5.21489 8.32502 5.31039 8.39472 5.42702C8.46442 5.54364 8.50113 5.67701 8.50093 5.81288Z" fill="#78350F"/>
<path d="M21.75 0.0503025H1.75C1.28587 0.0503025 0.840752 0.234677 0.512563 0.562866C0.184375 0.891054 0 1.33617 0 1.8003V21.8003C0 22.2644 0.184375 22.7096 0.512563 23.0377C0.840752 23.3659 1.28587 23.5503 1.75 23.5503H21.75C22.2141 23.5503 22.6592 23.3659 22.9874 23.0377C23.3156 22.7096 23.5 22.2644 23.5 21.8003V1.8003C23.5 1.33617 23.3156 0.891054 22.9874 0.562866C22.6592 0.234677 22.2141 0.0503025 21.75 0.0503025ZM22 21.8003C22 21.8666 21.9737 21.9302 21.9268 21.9771C21.8799 22.024 21.8163 22.0503 21.75 22.0503H1.75C1.6837 22.0503 1.62011 22.024 1.57322 21.9771C1.52634 21.9302 1.5 21.8666 1.5 21.8003V1.8003C1.5 1.734 1.52634 1.67041 1.57322 1.62353C1.62011 1.57664 1.6837 1.5503 1.75 1.5503H21.75C21.8163 1.5503 21.8799 1.57664 21.9268 1.62353C21.9737 1.67041 22 1.734 22 1.8003V21.8003Z" fill="#78350F"/>
<path d="M12.9599 10.25L13.5849 6.5H17.9499C18.1489 6.5 18.3396 6.42098 18.4803 6.28033C18.6209 6.13968 18.6999 5.94891 18.6999 5.75C18.6999 5.55109 18.6209 5.36032 18.4803 5.21967C18.3396 5.07902 18.1489 5 17.9499 5H12.9499C12.7726 4.99988 12.601 5.0626 12.4655 5.17702C12.3301 5.29144 12.2395 5.45016 12.2099 5.625L11.2099 11.625C11.183 11.7827 11.2072 11.9449 11.2789 12.0879C11.3507 12.2308 11.4663 12.3471 11.6088 12.4197C11.7514 12.4923 11.9134 12.5174 12.0713 12.4914C12.2291 12.4654 12.3745 12.3895 12.4862 12.275C12.7449 12.0208 13.052 11.8212 13.3894 11.6881C13.7267 11.555 14.0874 11.491 14.4499 11.5C15.1793 11.5 15.8788 11.7897 16.3945 12.3055C16.9102 12.8212 17.1999 13.5207 17.1999 14.25C17.1999 14.9793 16.9102 15.6788 16.3945 16.1945C15.8788 16.7103 15.1793 17 14.4499 17C14.0874 17.009 13.7267 16.945 13.3894 16.8119C13.052 16.6788 12.7449 16.4792 12.4862 16.225C12.347 16.0828 12.1569 16.0017 11.9579 15.9996C11.7589 15.9975 11.5672 16.0745 11.4249 16.2138C11.2827 16.353 11.2016 16.543 11.1995 16.742C11.1974 16.9411 11.2745 17.1328 11.4137 17.275C11.812 17.6721 12.286 17.9851 12.8075 18.1955C13.3291 18.406 13.8876 18.5095 14.4499 18.5C15.5771 18.5 16.6581 18.0522 17.4552 17.2552C18.2522 16.4582 18.6999 15.3772 18.6999 14.25C18.6999 13.1228 18.2522 12.0418 17.4552 11.2448C16.6581 10.4478 15.5771 10 14.4499 10C13.9427 9.99877 13.439 10.0833 12.9599 10.25Z" fill="#78350F"/>
</svg>
