<svg version="1.1" x="0px" y="0px" viewBox="0 0 64 64" style="enable-background:new 0 0 64 64;" xml:space="preserve" width="64" height="64">
  <path d="M32 0c-2.977 0 -9.441 33.766 -9.441 38.698s4.509 8.93 9.441 8.93 9.441 -3.998 9.441 -8.93S34.977 0 32 0"/>
  <path d="M39.253 4.864c1.143 3.783 2.221 8.38 2.945 11.678 1.783 8.125 3.708 18.905 3.708 22.156 0 7.261 -6.368 13.395 -13.906 13.395s-13.906 -6.134 -13.906 -13.395c0 -3.25 1.925 -14.031 3.708 -22.156 0.724 -3.298 1.802 -7.895 2.945 -11.678 -8.056 1.729 -14.095 8.889 -14.095 17.462v23.814C10.652 56.004 18.648 64 28.513 64h6.975c9.864 0 17.86 -7.996 17.86 -17.86V22.326c0 -8.572 -6.04 -15.733 -14.095 -17.462M16.372 52.837h-0.001c-1.641 0 -2.976 -1.335 -2.976 -2.977 0.001 -1.642 1.336 -2.977 2.977 -2.977 1.641 0 2.977 1.335 2.977 2.977s-1.335 2.977 -2.977 2.977m9.908 6.698c0 -1.138 -0.36 -2.218 -1.04 -3.124l3.57 -2.682c1.266 1.686 1.936 3.693 1.936 5.806zm11.44 0h-4.465c0 -2.113 0.669 -4.12 1.936 -5.806l3.57 2.682c-0.681 0.906 -1.04 1.986 -1.04 3.124m9.908 -6.698h-0.001c-1.641 0 -2.976 -1.335 -2.976 -2.977 0.001 -1.642 1.336 -2.977 2.977 -2.977 1.641 0 2.977 1.335 2.977 2.977s-1.335 2.977 -2.977 2.977"/>
  <path d="M11.418 3.232c-2.325 -2.325 -6.094 -2.325 -8.419 0 -2.325 2.325 -2.325 6.095 0 8.419 1.386 1.385 3.284 1.945 5.084 1.679 0.806 -1.834 1.859 -3.563 3.139 -5.129 0.775 -0.948 1.625 -1.826 2.538 -2.628z"/>
  <path d="M61.001 3.232c-2.325 -2.325 -6.095 -2.325 -8.42 0L50.24 5.574a22.325 22.325 0 0 1 2.538 2.628c1.28 1.566 2.333 3.295 3.139 5.129 1.8 0.266 3.699 -0.294 5.084 -1.679 2.325 -2.325 2.325 -6.095 0 -8.419"/>
</svg>