<svg width="24" height="24" viewBox="0 0 24 24" fill="none" xmlns="http://www.w3.org/2000/svg">
<path d="M21.75 0H1.75C1.28587 0 0.840752 0.184375 0.512563 0.512563C0.184375 0.840752 0 1.28587 0 1.75V21.75C0 22.2141 0.184375 22.6592 0.512563 22.9874C0.840752 23.3156 1.28587 23.5 1.75 23.5H21.75C22.2141 23.5 22.6592 23.3156 22.9874 22.9874C23.3156 22.6592 23.5 22.2141 23.5 21.75V1.75C23.5 1.28587 23.3156 0.840752 22.9874 0.512563C22.6592 0.184375 22.2141 0 21.75 0ZM22 21.75C22 21.8163 21.9737 21.8799 21.9268 21.9268C21.8799 21.9737 21.8163 22 21.75 22H1.75C1.6837 22 1.62011 21.9737 1.57322 21.9268C1.52634 21.8799 1.5 21.8163 1.5 21.75V1.75C1.5 1.6837 1.52634 1.62011 1.57322 1.57322C1.62011 1.52634 1.6837 1.5 1.75 1.5H21.75C21.8163 1.5 21.8799 1.52634 21.9268 1.57322C21.9737 1.62011 22 1.6837 22 1.75V21.75ZM11.75 10C11.5155 10.0005 11.2813 10.0202 11.05 10.0588L13.3937 6.135C13.4443 6.05046 13.4777 5.95679 13.4921 5.85934C13.5064 5.76189 13.5015 5.66256 13.4774 5.56704C13.4534 5.47151 13.4108 5.38165 13.352 5.30259C13.2933 5.22352 13.2195 5.15681 13.135 5.10625C13.0505 5.05569 12.9568 5.02228 12.8593 5.00792C12.7619 4.99356 12.6626 4.99854 12.567 5.02256C12.4715 5.04659 12.3816 5.0892 12.3026 5.14795C12.2235 5.20671 12.1568 5.28046 12.1063 5.365L8.07625 12.115C7.60599 12.9244 7.41613 13.8665 7.53613 14.7948C7.65614 15.7232 8.07931 16.586 8.73993 17.2493C9.40055 17.9125 10.2617 18.3391 11.1896 18.4627C12.1175 18.5864 13.0603 18.4003 13.8715 17.9332C14.6828 17.4662 15.3172 16.7443 15.6761 15.8798C16.0351 15.0152 16.0986 14.0564 15.8568 13.152C15.615 12.2477 15.0813 11.4485 14.3387 10.8786C13.5961 10.3086 12.6861 9.99977 11.75 10ZM11.75 17C11.2061 17 10.6744 16.8387 10.2222 16.5365C9.76995 16.2344 9.41747 15.8049 9.20933 15.3024C9.00119 14.7999 8.94673 14.2469 9.05284 13.7135C9.15895 13.1801 9.42086 12.6901 9.80546 12.3055C10.1901 11.9209 10.6801 11.6589 11.2135 11.5528C11.7469 11.4467 12.2999 11.5012 12.8024 11.7093C13.3049 11.9175 13.7344 12.2699 14.0365 12.7222C14.3387 13.1744 14.5 13.7061 14.5 14.25C14.5 14.9793 14.2103 15.6788 13.6945 16.1945C13.1788 16.7103 12.4793 17 11.75 17Z" fill="#78350F"/>
</svg>
