<svg width="24" height="24" viewBox="0 0 24 24" fill="none" xmlns="http://www.w3.org/2000/svg">
<path d="M21.75 0H1.75C1.28587 0 0.840752 0.184375 0.512563 0.512563C0.184375 0.840752 0 1.28587 0 1.75V21.75C0 22.2141 0.184375 22.6592 0.512563 22.9874C0.840752 23.3156 1.28587 23.5 1.75 23.5H21.75C22.2141 23.5 22.6592 23.3156 22.9874 22.9874C23.3156 22.6592 23.5 22.2141 23.5 21.75V1.75C23.5 1.28587 23.3156 0.840752 22.9874 0.512563C22.6592 0.184375 22.2141 0 21.75 0ZM22 21.75C22 21.8163 21.9737 21.8799 21.9268 21.9268C21.8799 21.9737 21.8163 22 21.75 22H1.75C1.6837 22 1.62011 21.9737 1.57322 21.9268C1.52634 21.8799 1.5 21.8163 1.5 21.75V1.75C1.5 1.6837 1.52634 1.62011 1.57322 1.57322C1.62011 1.52634 1.6837 1.5 1.75 1.5H21.75C21.8163 1.5 21.8799 1.52634 21.9268 1.57322C21.9737 1.62011 22 1.6837 22 1.75V21.75ZM15.3638 6.32C15.433 6.41864 15.4774 6.53251 15.4933 6.65197C15.5092 6.77142 15.496 6.89295 15.455 7.00625L11.455 18.0063C11.4024 18.151 11.3065 18.276 11.1804 18.3643C11.0542 18.4527 10.904 18.5 10.75 18.5C10.6648 18.4989 10.5803 18.4836 10.5 18.455C10.4074 18.4214 10.3224 18.3698 10.2497 18.3033C10.177 18.2368 10.1182 18.1566 10.0765 18.0673C10.0348 17.9781 10.0111 17.8815 10.0068 17.7831C10.0025 17.6846 10.0176 17.5863 10.0513 17.4937L13.6787 7.5H8.75C8.55109 7.5 8.36032 7.42098 8.21967 7.28033C8.07902 7.13968 8 6.94891 8 6.75C8 6.55109 8.07902 6.36032 8.21967 6.21967C8.36032 6.07902 8.55109 6 8.75 6H14.75C14.8705 6.00012 14.9892 6.02926 15.096 6.08496C15.2028 6.14067 15.2947 6.22129 15.3638 6.32Z" fill="#78350F"/>
</svg>
