<svg width="24" height="24" viewBox="0 0 24 24" fill="none" xmlns="http://www.w3.org/2000/svg">
<path d="M8.50093 5.78773V17.7877C8.50093 17.9866 8.42191 18.1774 8.28126 18.3181C8.14061 18.4587 7.94984 18.5377 7.75093 18.5377C7.55202 18.5377 7.36125 18.4587 7.2206 18.3181C7.07995 18.1774 7.00093 17.9866 7.00093 17.7877V7.18898L5.16718 8.41273C5.00142 8.52313 4.79859 8.56316 4.60332 8.52401C4.40805 8.48486 4.23632 8.36974 4.12593 8.20398C4.01553 8.03822 3.97551 7.8354 4.01465 7.64013C4.0538 7.44485 4.16892 7.27313 4.33468 7.16273L7.33468 5.16273C7.4477 5.08733 7.57908 5.04404 7.71479 5.03749C7.8505 5.03095 7.98544 5.06139 8.10519 5.12556C8.22495 5.18974 8.32502 5.28524 8.39472 5.40187C8.46442 5.5185 8.50113 5.65187 8.50093 5.78773Z" fill="#78350F"/>
<path d="M21.75 0.0251465H1.75C1.28587 0.0251465 0.840752 0.209521 0.512563 0.53771C0.184375 0.865898 0 1.31102 0 1.77515V21.7751C0 22.2393 0.184375 22.6844 0.512563 23.0126C0.840752 23.3408 1.28587 23.5251 1.75 23.5251H21.75C22.2141 23.5251 22.6592 23.3408 22.9874 23.0126C23.3156 22.6844 23.5 22.2393 23.5 21.7751V1.77515C23.5 1.31102 23.3156 0.865898 22.9874 0.53771C22.6592 0.209521 22.2141 0.0251465 21.75 0.0251465ZM22 21.7751C22 21.8415 21.9737 21.905 21.9268 21.9519C21.8799 21.9988 21.8163 22.0251 21.75 22.0251H1.75C1.6837 22.0251 1.62011 21.9988 1.57322 21.9519C1.52634 21.905 1.5 21.8415 1.5 21.7751V1.77515C1.5 1.70884 1.52634 1.64525 1.57322 1.59837C1.62011 1.55149 1.6837 1.52515 1.75 1.52515H21.75C21.8163 1.52515 21.8799 1.55149 21.9268 1.59837C21.9737 1.64525 22 1.70884 22 1.77515V21.7751Z" fill="#78350F"/>
<path d="M18.7776 16.6203C19.2485 15.9195 19.5 15.0943 19.5 14.25C19.499 13.35 19.2129 12.4735 18.6826 11.7463C18.1524 11.0191 17.4053 10.4786 16.5487 10.2025L19.365 6.18C19.4437 6.06757 19.49 5.9357 19.4989 5.79876C19.5078 5.66182 19.479 5.52506 19.4156 5.40336C19.3522 5.28167 19.2566 5.17971 19.1392 5.10859C19.0219 5.03747 18.8872 4.99991 18.75 5H12.75C12.5511 5 12.3603 5.07902 12.2197 5.21967C12.079 5.36032 12 5.55109 12 5.75C12 5.94891 12.079 6.13968 12.2197 6.28033C12.3603 6.42098 12.5511 6.5 12.75 6.5H17.31L14.635 10.32C14.5563 10.4324 14.51 10.5643 14.5011 10.7012C14.4922 10.8382 14.521 10.9749 14.5844 11.0966C14.6478 11.2183 14.7434 11.3203 14.8608 11.3914C14.9781 11.4625 15.1128 11.5001 15.25 11.5C15.7034 11.5 16.1498 11.6121 16.5494 11.8263C16.949 12.0405 17.2895 12.3502 17.5404 12.7278C17.7914 13.1054 17.9451 13.5392 17.9879 13.9906C18.0306 14.442 17.9611 14.897 17.7855 15.315C17.61 15.733 17.3337 16.1012 16.9814 16.3866C16.6292 16.6721 16.2118 16.866 15.7664 16.9511C15.3211 17.0362 14.8616 17.0099 14.4289 16.8745C13.9962 16.7391 13.6036 16.4988 13.2862 16.175C13.2174 16.1046 13.1353 16.0484 13.0448 16.0097C12.9542 15.971 12.8569 15.9505 12.7584 15.9494C12.6599 15.9483 12.5622 15.9666 12.4708 16.0033C12.3793 16.0399 12.296 16.0943 12.2256 16.1631C12.1552 16.232 12.099 16.314 12.0603 16.4046C12.0216 16.4952 12.0011 16.5925 12 16.691C11.9989 16.7895 12.0172 16.8872 12.0539 16.9786C12.0906 17.07 12.1449 17.1533 12.2137 17.2237C12.8045 17.8269 13.5616 18.2405 14.3884 18.4117C15.2152 18.5828 16.0742 18.5039 16.856 18.1848C17.6377 17.8658 18.3067 17.3211 18.7776 16.6203Z" fill="#78350F"/>
</svg>
