<svg width="24" height="24" viewBox="0 0 24 24" fill="none" xmlns="http://www.w3.org/2000/svg">
<path d="M21.75 0H1.75C1.28587 0 0.840752 0.184375 0.512563 0.512563C0.184375 0.840752 0 1.28587 0 1.75V21.75C0 22.2141 0.184375 22.6592 0.512563 22.9874C0.840752 23.3156 1.28587 23.5 1.75 23.5H21.75C22.2141 23.5 22.6592 23.3156 22.9874 22.9874C23.3156 22.6592 23.5 22.2141 23.5 21.75V1.75C23.5 1.28587 23.3156 0.840752 22.9874 0.512563C22.6592 0.184375 22.2141 0 21.75 0ZM22 21.75C22 21.8163 21.9737 21.8799 21.9268 21.9268C21.8799 21.9737 21.8163 22 21.75 22H1.75C1.6837 22 1.62011 21.9737 1.57322 21.9268C1.52634 21.8799 1.5 21.8163 1.5 21.75V1.75C1.5 1.6837 1.52634 1.62011 1.57322 1.57322C1.62011 1.52634 1.6837 1.5 1.75 1.5H21.75C21.8163 1.5 21.8799 1.52634 21.9268 1.57322C21.9737 1.62011 22 1.6837 22 1.75V21.75ZM15.5 14.25C15.5 15.0943 15.2485 15.9195 14.7776 16.6203C14.3067 17.3211 13.6377 17.8658 12.856 18.1848C12.0742 18.5039 11.2152 18.5828 10.3884 18.4117C9.56161 18.2405 8.80454 17.8269 8.21375 17.2237C8.14489 17.1533 8.09057 17.07 8.0539 16.9786C8.01723 16.8872 7.99892 16.7895 8.00002 16.691C8.00113 16.5925 8.02162 16.4952 8.06033 16.4046C8.09904 16.314 8.1552 16.232 8.22563 16.1631C8.29605 16.0943 8.37934 16.0399 8.47075 16.0033C8.56217 15.9666 8.65991 15.9483 8.7584 15.9494C8.85689 15.9505 8.95419 15.971 9.04476 16.0097C9.13533 16.0484 9.21739 16.1046 9.28625 16.175C9.60364 16.4988 9.99616 16.7391 10.4289 16.8745C10.8616 17.0099 11.3211 17.0362 11.7664 16.9511C12.2118 16.866 12.6292 16.6721 12.9814 16.3866C13.3337 16.1012 13.61 15.733 13.7855 15.315C13.9611 14.897 14.0306 14.442 13.9879 13.9906C13.9451 13.5392 13.7914 13.1054 13.5404 12.7278C13.2895 12.3502 12.949 12.0405 12.5494 11.8263C12.1498 11.6121 11.7034 11.5 11.25 11.5C11.1128 11.5001 10.9781 11.4625 10.8608 11.3914C10.7434 11.3203 10.6478 11.2183 10.5844 11.0966C10.521 10.9749 10.4922 10.8382 10.5011 10.7012C10.51 10.5643 10.5563 10.4324 10.635 10.32L13.31 6.5H8.75C8.55109 6.5 8.36032 6.42098 8.21967 6.28033C8.07902 6.13968 8 5.94891 8 5.75C8 5.55109 8.07902 5.36032 8.21967 5.21967C8.36032 5.07902 8.55109 5 8.75 5H14.75C14.8872 4.99991 15.0219 5.03747 15.1392 5.10859C15.2566 5.17971 15.3522 5.28167 15.4156 5.40336C15.479 5.52506 15.5078 5.66182 15.4989 5.79876C15.49 5.9357 15.4437 6.06757 15.365 6.18L12.5487 10.2025C13.4053 10.4786 14.1524 11.0191 14.6826 11.7463C15.2129 12.4735 15.499 13.35 15.5 14.25Z" fill="#78350F"/>
</svg>
