<svg width="24" height="24" viewBox="0 0 24 24" fill="none" xmlns="http://www.w3.org/2000/svg">
<path d="M21.75 0H1.75C1.28587 0 0.840752 0.184375 0.512563 0.512563C0.184375 0.840752 0 1.28587 0 1.75V21.75C0 22.2141 0.184375 22.6592 0.512563 22.9874C0.840752 23.3156 1.28587 23.5 1.75 23.5H21.75C22.2141 23.5 22.6592 23.3156 22.9874 22.9874C23.3156 22.6592 23.5 22.2141 23.5 21.75V1.75C23.5 1.28587 23.3156 0.840752 22.9874 0.512563C22.6592 0.184375 22.2141 0 21.75 0ZM22 21.75C22 21.8163 21.9737 21.8799 21.9268 21.9268C21.8799 21.9737 21.8163 22 21.75 22H1.75C1.6837 22 1.62011 21.9737 1.57322 21.9268C1.52634 21.8799 1.5 21.8163 1.5 21.75V1.75C1.5 1.6837 1.52634 1.62011 1.57322 1.57322C1.62011 1.52634 1.6837 1.5 1.75 1.5H21.75C21.8163 1.5 21.8799 1.52634 21.9268 1.57322C21.9737 1.62011 22 1.6837 22 1.75V21.75ZM13 5.75V17.75C13 17.9489 12.921 18.1397 12.7803 18.2803C12.6397 18.421 12.4489 18.5 12.25 18.5C12.0511 18.5 11.8603 18.421 11.7197 18.2803C11.579 18.1397 11.5 17.9489 11.5 17.75V7.15125L9.66625 8.375C9.50049 8.4854 9.29766 8.52542 9.10239 8.48627C8.90712 8.44713 8.7354 8.33201 8.625 8.16625C8.5146 8.00049 8.47458 7.79766 8.51373 7.60239C8.55287 7.40712 8.66799 7.2354 8.83375 7.125L11.8337 5.125C11.9468 5.04959 12.0782 5.00631 12.2139 4.99976C12.3496 4.99321 12.4845 5.02365 12.6043 5.08783C12.724 5.15201 12.8241 5.24751 12.8938 5.36414C12.9635 5.48076 13.0002 5.61413 13 5.75Z" fill="#78350F"/>
</svg>
