<svg x="0px" y="0px" width="64px" height="64px" viewBox="0 0 64 64" fill="#78350F" xmlns="http://www.w3.org/2000/svg">
  <path d="m43.857 3.997 1.604 -2.211c1.409 -1.94 4.13 -2.363 6.059 -0.954l5.257 3.837c1.929 1.409 2.352 4.13 0.943 6.059l-1.723 2.352c-3.208 -3.956 -7.37 -7.11 -12.139 -9.083M8.003 13.08c3.208 -3.956 7.37 -7.11 12.139 -9.083l-1.604 -2.211C17.129 -0.155 14.409 -0.577 12.48 0.832L7.223 4.669c-1.929 1.409 -2.352 4.13 -0.943 6.059zm44.59 19.444c0 11.356 -9.238 20.593 -20.593 20.593 -11.356 0 -20.593 -9.238 -20.593 -20.593s9.238 -20.593 20.593 -20.593 20.593 9.238 20.593 20.593m-7.045 0c0 -0.898 -0.728 -1.626 -1.626 -1.626h-9.767a2.694 2.694 0 0 0 -1.972 -1.066l-4.042 -11.225c-0.203 -0.562 -0.823 -0.86 -1.386 -0.653a1.083 1.083 0 0 0 -0.653 1.386l4.039 11.217c-0.521 0.495 -0.851 1.19 -0.851 1.965 0 1.497 1.213 2.71 2.71 2.71 0.883 0 1.66 -0.429 2.156 -1.084h9.767c0.897 0 1.626 -0.728 1.626 -1.626m6.319 23.639c1.994 3.122 2.547 6.178 1.138 7.359 -1.517 1.279 -4.834 -0.098 -7.76 -3.089a18.808 18.808 0 0 1 -0.965 -1.073l-0.531 -0.628c-3.588 1.626 -7.566 2.514 -11.749 2.514 -4.184 0 -8.161 -0.889 -11.749 -2.514l-0.531 0.628a18.649 18.649 0 0 1 -0.965 1.073c-2.926 2.991 -6.243 4.368 -7.76 3.089 -1.409 -1.181 -0.856 -4.238 1.138 -7.359 0.369 -0.585 0.802 -1.171 1.268 -1.756 -6.2 -5.268 -10.123 -13.115 -10.123 -21.883 0 -6.644 2.254 -12.757 6.048 -17.624 3.122 -4.032 7.316 -7.197 12.139 -9.094 3.262 -1.301 6.817 -2.005 10.535 -2.005 3.717 0 7.273 0.705 10.535 2.005 4.823 1.897 9.018 5.062 12.139 9.094 3.793 4.867 6.048 10.98 6.048 17.624 0 8.768 -3.924 16.615 -10.123 21.883 0.466 0.585 0.9 1.171 1.268 1.756m2.894 -23.639c0 -12.55 -10.211 -22.761 -22.761 -22.761 -12.551 0 -22.761 10.211 -22.761 22.761 0 12.55 10.21 22.761 22.761 22.761 12.55 0 22.761 -10.211 22.761 -22.761"/>
</svg>